<svg width="21" height="11" viewBox="0 0 21 11" fill="none" xmlns="http://www.w3.org/2000/svg">
<path d="M15.625 0H11.4583V2.08333H15.625C17.3438 2.08333 18.75 3.48958 18.75 5.20833C18.75 6.92708 17.3438 8.33333 15.625 8.33333H11.4583V10.4167H15.625C18.5 10.4167 20.8333 8.08333 20.8333 5.20833C20.8333 2.33333 18.5 0 15.625 0ZM9.375 8.33333H5.20833C3.48958 8.33333 2.08333 6.92708 2.08333 5.20833C2.08333 3.48958 3.48958 2.08333 5.20833 2.08333H9.375V0H5.20833C2.33333 0 0 2.33333 0 5.20833C0 8.08333 2.33333 10.4167 5.20833 10.4167H9.375V8.33333ZM6.25 4.16667H14.5833V6.25H6.25V4.16667Z" fill="#1B3168"/>
</svg>
